# xmcd CD database file
#
# Track frame offsets:
#	150
#	14125
#	21375
#	34725
#	46450
#	59425
#	72300
#	89913
#	108713
#	123013
#	136450
#	147075
#	160038
#
# Disc length: 2327 seconds
#
# Revision: 0
# Processed by: cddbd v1.5PL3 Copyright (c) Steve Scherf et al.
# Submitted via: CDex 1.50
#
DISCID=c109150d
DTITLE=Jan Windolf - Country Yodels
DYEAR=1994
DGENRE=Country
TTITLE0=The Goatherd Song
TTITLE1=Yodelling Polka
TTITLE2=Happy Yodelling Cowgirl
TTITLE3=Joann's Waltz
TTITLE4=Chime Bells
TTITLE5=Cattle Call
TTITLE6=Hooked On Yodelling
TTITLE7=Mockingbird Yodel
TTITLE8=I Learned To Yodel
TTITLE9=Yodelling Boy
TTITLE10=Little Kay
TTITLE11=He Taught Me How To Yodel
TTITLE12=Yodel And Smile
EXTD=YEAR: 1994
EXTT0=
EXTT1=
EXTT2=
EXTT3=
EXTT4=
EXTT5=
EXTT6=
EXTT7=
EXTT8=
EXTT9=
EXTT10=
EXTT11=
EXTT12=
PLAYORDER=
